<svg width="200" height="200" viewBox="0 0 200 200" fill="none" xmlns="http://www.w3.org/2000/svg">
<path d="M99.9999 33.3335V8.3335L66.6666 41.6668L99.9999 75.0002V50.0002C127.583 50.0002 150 72.4168 150 100C150 108.417 147.917 116.417 144.167 123.333L156.333 135.5C162.833 125.25 166.667 113.083 166.667 100C166.667 63.1668 136.833 33.3335 99.9999 33.3335ZM99.9999 150C72.4166 150 49.9999 127.583 49.9999 100C49.9999 91.5835 52.0833 83.5835 55.8333 76.6668L43.6666 64.5002C37.1666 74.7502 33.3333 86.9168 33.3333 100C33.3333 136.833 63.1666 166.667 99.9999 166.667V191.667L133.333 158.333L99.9999 125V150Z" fill="#56A3A6"/>
</svg>
