<svg width="301" height="242" viewBox="0 0 301 242" fill="none" xmlns="http://www.w3.org/2000/svg">
<path fill-rule="evenodd" clip-rule="evenodd" d="M286 0C294.284 0 301 6.71573 301 15V160C301 168.284 294.284 175 286 175H237.5H233.75H166.5V194L193.504 215.685C196.854 218.374 197.481 223.229 194.926 226.682L186.001 238.742C183.28 242.419 178.036 243.07 174.499 240.171L154.304 223.618C152.092 221.805 148.909 221.805 146.697 223.618L126.502 240.171C122.964 243.07 117.72 242.419 114.999 238.742L106.074 226.682C103.519 223.229 104.147 218.374 107.496 215.685L134.5 194V175H15C6.71577 175 4.57764e-05 168.284 4.57764e-05 160V15C4.57764e-05 6.71573 6.71576 0 15 0H150.5H286ZM264 150.5C269.523 150.5 274 146.023 274 140.5V32.5C274 26.9772 269.523 22.5 264 22.5H37C31.4772 22.5 27 26.9772 27 32.5V140.5C27 146.023 31.4772 150.5 37 150.5H264Z" fill="#4F4E4C"/>
<path d="M233.75 175V194H237.5V175H233.75Z" fill="#4F4E4C"/>
<path d="M237.5 194H233.75L232.799 194.888C231.254 196.33 231.173 198.751 232.618 200.293V200.293C233.341 201.063 234.349 201.5 235.405 201.5H235.845C236.901 201.5 237.91 201.063 238.632 200.293V200.293C240.077 198.751 239.996 196.33 238.451 194.888L237.5 194Z" fill="#4F4E4C"/>
</svg>
