<svg width="128" height="128" viewBox="0 0 128 128" fill="none" xmlns="http://www.w3.org/2000/svg">
<path d="M106.667 82.6667C100 82.6667 93.6 81.6 87.6267 79.6267C85.76 79.04 83.68 79.4667 82.1867 80.9067L70.4533 92.64C55.36 84.96 42.9867 72.64 35.3067 57.5467L47.04 45.76C48.5333 44.32 48.96 42.24 48.3733 40.3733C46.4 34.4 45.3333 28 45.3333 21.3333C45.3333 18.4 42.9333 16 40 16H21.3333C18.4 16 16 18.4 16 21.3333C16 71.4133 56.5867 112 106.667 112C109.6 112 112 109.6 112 106.667V88C112 85.0667 109.6 82.6667 106.667 82.6667Z" fill="black"/>
</svg>
